<?xml version="1.0" standalone="no"?>
<!DOCTYPE svg PUBLIC "-//W3C//DTD SVG 20010904//EN"
 "http://www.w3.org/TR/2001/REC-SVG-20010904/DTD/svg10.dtd">
<svg version="1.0" xmlns="http://www.w3.org/2000/svg"
 width="260.000000pt" height="324.000000pt" viewBox="0 0 260.000000 324.000000"
 preserveAspectRatio="xMidYMid meet">
<metadata>
Created by potrace 1.10, written by Peter Selinger 2001-2011
</metadata>
<g transform="translate(0.000000,324.000000) scale(0.050000,-0.050000)"
fill="#2eb5b8" stroke="none">
<path d="M1610 6299 c-273 -13 -294 -22 -286 -117 3 -39 14 -67 23 -62 9 6 30
-21 46 -59 36 -88 53 -97 149 -86 63 7 78 2 78 -24 0 -23 12 -30 35 -23 105
31 392 53 535 41 90 -7 342 -3 561 9 220 12 521 27 669 33 149 6 392 16 542
23 177 7 277 4 285 -9 7 -11 43 -17 81 -11 37 5 74 -1 81 -13 15 -23 -13 -24
-569 -24 -192 0 -413 -8 -490 -17 -186 -23 -584 -39 -1240 -51 -297 -5 -567
-17 -600 -27 l-60 -19 64 -1 c35 -1 69 -10 75 -20 16 -26 -62 -41 -87 -16 -30
30 -27 3 6 -62 26 -50 36 -53 132 -47 l104 7 -67 57 c-37 32 -59 58 -49 58 16
1 88 -58 240 -196 132 -120 177 -143 281 -144 67 0 200 -34 391 -98 201 -68
269 -98 220 -97 -104 1 -461 69 -572 109 -28 10 -23 -3 21 -50 88 -95 41 -76
-76 31 -96 87 -116 96 -312 137 l-208 43 58 -47 c33 -26 86 -60 119 -77 33
-16 105 -63 160 -105 55 -41 87 -57 70 -37 -27 35 -26 37 10 26 93 -29 217
-50 238 -42 27 10 125 -85 107 -103 -14 -15 -255 49 -290 77 -14 10 -25 14
-25 8 0 -41 351 -260 412 -258 63 3 66 0 43 -38 -21 -34 -19 -45 10 -66 36
-27 48 -102 19 -120 -9 -5 -56 43 -105 107 -49 65 -95 114 -102 109 -8 -5 -18
3 -24 17 -19 49 -13 -42 7 -95 13 -35 13 -48 0 -40 -11 7 -20 25 -20 41 0 35
-53 39 -65 5 -5 -17 -43 -2 -112 42 -96 61 -101 69 -69 94 32 25 33 30 5 47
-17 10 -157 112 -310 226 -154 114 -316 233 -362 266 -105 74 -173 278 -107
319 11 7 20 30 20 52 0 56 -78 202 -101 188 -10 -7 -14 0 -8 15 19 49 -80 122
-126 93 -22 -13 -36 -39 -31 -56 5 -22 -13 -40 -56 -57 -61 -22 -63 -27 -52
-108 6 -47 -1 -135 -16 -196 -14 -61 -32 -183 -38 -270 l-12 -160 36 70 c21
38 77 137 126 219 49 83 92 177 95 210 9 76 12 79 50 40 18 -18 44 -27 58 -20
14 7 10 1 -8 -15 -28 -23 -29 -30 -6 -46 41 -28 15 -167 -45 -239 -35 -42 -43
-47 -27 -15 12 25 17 45 11 45 -7 0 2 20 19 44 35 51 41 84 11 66 -11 -7 -20
2 -20 20 0 19 -11 29 -25 25 -14 -5 -24 -28 -23 -52 0 -24 -6 -43 -15 -43 -9
0 -10 -15 -3 -33 9 -24 5 -29 -13 -17 -18 10 -23 7 -16 -12 5 -15 -3 -54 -19
-85 -16 -32 -20 -52 -9 -45 32 20 2 -641 -31 -695 -6 -10 -13 -51 -15 -91 -2
-39 -11 -89 -21 -110 -12 -27 -10 -34 6 -25 34 22 18 -153 -19 -209 -30 -46
-32 -41 -57 123 -25 169 -25 172 59 537 46 202 77 382 70 400 -13 31 -51 -96
-109 -368 -40 -183 -51 -168 -43 61 4 120 -1 209 -12 209 -27 0 -73 -438 -58
-548 7 -51 4 -92 -5 -92 -10 0 -21 -41 -25 -90 -5 -67 -1 -88 18 -81 14 6 25
-5 25 -25 -1 -44 -30 -89 -52 -81 -26 10 -45 -173 -33 -305 6 -73 2 -117 -12
-126 -13 -8 -22 -43 -20 -78 l2 -64 15 70 15 70 2 -75 c3 -86 60 -104 120 -39
18 20 28 26 21 15 -27 -47 -33 -111 -11 -112 13 0 7 -9 -12 -21 -19 -11 -35
-34 -35 -52 0 -31 -44 -194 -82 -306 -17 -48 -8 127 13 270 7 49 5 52 -10 20
-17 -38 -18 -38 -20 5 0 25 -9 45 -18 45 -28 0 -43 -108 -44 -318 -1 -122 -8
-177 -18 -152 -14 32 -17 26 -17 -30 1 -132 -16 -311 -31 -335 -10 -17 -5 -21
16 -13 35 14 45 -61 11 -82 -11 -7 -20 -1 -20 12 0 14 -6 19 -13 11 -8 -7 -16
-99 -17 -204 -3 -112 -14 -201 -27 -214 -13 -13 -22 -59 -22 -104 2 -64 6 -72
19 -41 16 38 17 38 19 -5 1 -56 74 -62 113 -10 15 19 -7 -61 -48 -179 -82
-236 -100 -251 -58 -49 28 139 25 150 -34 107 -26 -19 -38 -59 -43 -145 -3
-66 -16 -150 -28 -189 -11 -38 -20 -97 -19 -130 2 -59 2 -59 18 -10 l16 50 2
-52 c1 -28 -16 -68 -38 -88 -40 -37 -57 -103 -20 -80 11 7 20 -2 20 -19 0 -17
-11 -29 -25 -26 -17 3 -26 -26 -28 -89 -1 -52 -13 -123 -25 -158 -26 -77 -29
-114 -5 -87 9 10 33 75 53 144 35 121 70 164 70 88 0 -21 13 -74 29 -119 l28
-81 -98 -35 c-54 -20 -94 -39 -90 -44 4 -4 -4 -49 -20 -99 -15 -51 -22 -100
-16 -109 6 -10 0 -30 -12 -45 -31 -37 -53 -291 -25 -291 12 0 18 20 13 44 -5
25 -1 36 10 25 10 -11 22 -41 27 -69 5 -27 10 59 11 191 l3 242 71 33 c98 47
109 43 86 -31 -11 -36 -38 -123 -60 -195 -107 -346 -109 -360 -58 -360 26 0
38 -9 30 -22 -7 -12 -30 -17 -50 -12 -65 17 37 -101 109 -126 53 -18 66 -16
86 14 77 114 85 120 85 64 2 -93 43 -98 867 -102 2441 -14 2452 -14 2428 135
-7 40 -34 88 -66 115 l-54 47 54 387 c39 281 48 390 31 400 -15 10 -12 18 9
27 18 6 32 30 32 53 0 37 77 42 118 8 4 -3 -9 -108 -28 -232 -19 -124 -34
-264 -33 -310 1 -47 -7 -90 -18 -97 -10 -6 -14 -33 -7 -60 8 -31 0 -69 -22
-102 -44 -67 -14 -173 81 -282 l64 -75 73 35 c39 19 72 48 72 65 0 16 9 30 20
30 11 0 20 16 20 35 -1 26 -5 28 -17 9 -13 -21 -22 -20 -42 5 -36 43 -11 124
60 195 60 60 77 116 36 116 -14 0 -9 15 10 37 40 44 141 434 121 466 -7 12 -1
29 14 38 22 14 22 23 3 42 -18 18 -18 31 -2 51 46 55 -21 207 -148 334 l-118
119 -47 -59 c-50 -62 -48 -63 -81 47 -9 31 -53 31 -739 2 -297 -13 -567 -23
-600 -22 -459 6 -452 6 -464 41 -7 19 -25 49 -41 68 -24 28 -25 68 -6 260 32
313 35 326 74 294 35 -30 93 24 75 69 -6 17 166 24 667 25 870 3 810 -1 899
57 113 74 130 92 118 123 -6 17 2 28 21 28 23 0 28 12 19 50 -8 30 -1 68 17
96 17 25 40 117 52 204 12 88 29 173 38 189 9 17 22 67 29 111 8 44 19 97 25
118 8 26 4 32 -13 22 -17 -11 -21 -3 -11 26 7 22 3 46 -8 53 -32 20 -25 51 11
51 20 0 28 11 21 30 -7 17 -3 30 8 30 32 0 21 66 -21 130 -22 33 -40 49 -40
35 0 -14 -10 -25 -21 -25 -12 0 -16 9 -9 20 14 23 -41 84 -106 118 -55 29
-146 9 -102 -21 19 -14 12 -15 -22 -6 -27 8 -55 23 -62 33 -6 10 -294 17 -665
17 -429 -1 -653 5 -653 19 0 11 -19 20 -42 20 -34 0 -39 9 -30 55 5 30 20 127
32 215 33 231 38 250 65 240 50 -19 87 25 60 69 -25 40 -21 41 280 44 417 4
518 3 1029 -14 391 -13 450 -11 493 17 44 29 50 29 61 1 11 -27 20 -26 79 8
160 95 294 265 308 391 5 46 16 89 25 94 14 10 60 198 60 246 0 15 -8 13 -21
-6 -14 -21 -16 -13 -5 30 9 33 14 98 12 145 -3 61 4 85 23 85 15 0 34 29 42
65 7 36 23 76 34 90 16 20 12 23 -16 12 -28 -11 -33 -7 -22 21 7 19 13 50 13
69 1 28 3 29 20 3 28 -43 27 35 -2 116 -42 123 -73 55 -100 -227 -14 -148 -28
-266 -30 -263 -10 9 -52 343 -50 390 3 70 -65 48 -80 -26 -13 -58 -13 -57 -16
15 -1 59 6 75 33 76 19 0 65 25 101 55 l66 54 -42 45 c-66 72 -148 60 -209
-30 l-51 -74 0 74 c0 61 -7 75 -39 75 -21 0 -44 9 -51 21 -9 14 -241 18 -707
12 -381 -5 -616 -3 -523 4 204 16 -1435 18 -1750 2z m575 -14 c-47 -4 -123 -4
-170 0 -47 5 -8 8 85 8 94 0 132 -3 85 -8z m2280 -20 c-47 -4 -123 -4 -170 0
-47 5 -8 8 85 8 94 0 132 -3 85 -8z m149 -101 c-30 -31 -48 -65 -39 -75 8 -10
2 -8 -15 4 -17 13 -195 28 -420 36 -438 16 -654 43 -410 51 77 3 167 11 200
19 33 8 213 16 399 18 l340 4 -55 -57z m-2979 -39 c-41 -4 -109 -4 -150 0 -41
5 -7 8 75 8 83 0 116 -3 75 -8z m-581 -87 l45 -81 -92 -140 c-113 -171 -112
-173 -61 88 48 244 48 244 108 133z m3482 38 c19 -19 29 -19 48 0 29 29 103
32 86 4 -21 -34 -32 -120 -15 -120 55 -1 72 -39 36 -79 -37 -40 -36 -41 20
-41 68 0 44 -33 -31 -43 -36 -5 -48 -17 -43 -45 3 -21 -4 -44 -16 -51 -12 -8
-41 -146 -65 -308 -48 -323 -31 -295 -196 -322 -50 -8 -61 -5 -40 9 24 16 20
20 -20 22 -29 2 -36 6 -18 11 22 6 29 24 23 58 -8 40 -1 49 33 49 23 0 42 2
42 5 0 3 23 122 50 264 81 419 138 375 -529 401 -159 7 -292 15 -296 19 -11
11 359 32 650 37 146 2 265 11 265 19 0 8 -11 15 -25 16 -14 0 -8 13 14 30 36
27 35 29 -30 30 -65 0 -67 2 -30 30 47 35 56 36 87 5z m336 -516 l12 -150 -71
-83 c-79 -90 -144 -120 -162 -73 -19 50 -12 71 18 59 17 -6 39 4 50 23 16 28
20 28 22 4 4 -38 57 217 56 270 0 40 0 40 -17 0 -33 -76 -21 17 14 117 42 117
57 84 78 -167z m-3743 -111 c-28 -151 -49 -187 -49 -85 0 61 48 216 67 216 4
0 -4 -59 -18 -131z m11 -268 c-34 -104 -49 -89 -31 30 10 68 20 88 36 72 16
-16 14 -44 -5 -102z m1850 70 l60 -28 -63 -1 c-34 -1 -73 12 -87 28 -32 39 6
39 90 1z m1848 -104 c-27 -110 -45 -138 -77 -117 -17 10 -17 21 -1 40 15 18
16 30 1 39 -13 9 -1 39 32 83 66 87 75 78 45 -45z m-623 58 c-42 -4 -105 -4
-140 1 -36 4 -2 8 75 7 77 0 106 -3 65 -8z m-315 -25 c37 -12 40 -17 13 -18
-26 -1 -33 -12 -25 -35 11 -29 9 -29 -21 -5 -30 25 -33 24 -21 -7 11 -31 2
-34 -82 -27 -51 4 -143 10 -204 11 -79 3 -99 8 -70 20 43 18 46 16 -80 58 -46
15 -3 20 190 19 138 0 273 -7 300 -16z m-1202 -7 c-22 -20 -180 -32 -168 -13
7 11 49 20 95 20 45 0 78 -3 73 -7z m1364 -33 c21 0 38 -9 38 -20 0 -13 -22
-15 -55 -7 -30 8 -73 13 -95 12 -32 -3 -34 0 -10 16 17 10 42 14 57 9 14 -6
44 -10 65 -10z m-582 -139 c0 -11 91 -22 205 -26 l205 -7 -220 -4 c-121 -2
-242 3 -270 10 l-50 14 50 14 c72 20 80 20 80 -1z m1060 -121 c0 -11 -23 -20
-51 -20 -31 0 -46 -8 -38 -21 7 -11 30 -15 51 -8 23 7 38 2 38 -12 0 -17 -27
-21 -93 -12 -51 7 -188 13 -304 13 -142 0 -204 7 -191 20 23 23 118 29 317 19
94 -4 141 1 146 17 10 29 125 32 125 4z m-1660 -20 c0 -12 -59 -19 -145 -17
l-145 4 130 13 c72 7 137 15 145 17 8 1 15 -6 15 -17z m-515 -96 c21 -18 31
-46 24 -66 -6 -19 3 -85 21 -145 l32 -109 -65 -132 c-73 -148 -111 -176 -66
-49 42 119 41 544 -2 488 -28 -37 -29 -36 -29 16 0 58 15 57 85 -3z m-1311
-221 c-32 -14 -39 17 -22 111 l16 96 11 -100 c6 -55 4 -103 -5 -107z m1169
-155 l-19 -98 -2 119 c-1 83 4 113 19 98 14 -14 15 -53 2 -119z m-1332 -213
c-2 -36 -29 -102 -59 -145 l-56 -80 12 110 c7 61 18 173 25 249 l14 139 33
-104 c19 -57 33 -133 31 -169z m338 150 c-9 -69 -28 -124 -47 -138 -41 -30
-51 -28 498 -118 237 -39 444 -75 461 -80 30 -9 85 63 91 118 1 13 5 59 8 103
4 60 8 67 15 30 5 -27 18 -61 29 -75 15 -17 14 -25 -2 -25 -12 0 -22 -13 -22
-30 0 -35 2 -36 69 -10 28 10 51 31 51 46 0 14 12 42 26 61 22 31 24 25 18
-44 -6 -56 -16 -77 -34 -70 -15 6 -45 -8 -68 -31 -23 -23 -53 -36 -68 -31 -19
8 -27 -7 -27 -50 0 -34 5 -61 12 -61 7 0 29 -28 49 -62 25 -43 42 -55 52 -38
10 16 19 17 28 4 7 -11 4 -24 -6 -27 -18 -7 -202 -683 -202 -742 0 -19 16 -28
45 -24 69 8 1426 663 1421 686 -5 21 149 54 168 36 6 -7 36 6 67 28 66 46 94
51 59 9 -21 -25 -18 -30 13 -31 30 -1 29 -5 -9 -20 -35 -14 -44 -29 -34 -59 9
-28 4 -40 -19 -40 -17 0 -31 -11 -31 -25 -1 -18 -6 -17 -18 3 -14 22 -171 -45
-773 -329 -415 -197 -744 -361 -732 -365 52 -17 20 -48 -37 -37 -36 7 -60 4
-60 -9 0 -12 -17 -15 -40 -8 -69 22 -47 -51 45 -147 53 -55 68 -79 40 -65 -37
19 -42 18 -32 -8 22 -57 -30 -30 -93 50 -65 82 -120 104 -120 49 0 -23 -12
-28 -40 -19 -26 8 -40 4 -40 -14 0 -20 -275 -251 -459 -385 -17 -11 15 35 70
104 54 70 122 155 149 189 28 35 37 57 20 49 -16 -9 9 20 57 63 l87 78 -147
16 -147 16 95 30 c107 35 114 50 50 122 -25 28 -31 41 -15 28 17 -12 66 -29
110 -37 95 -18 128 -67 -264 395 -157 185 -305 363 -329 396 -24 33 -51 60
-58 60 -26 0 -36 -110 -12 -141 13 -17 2 -9 -23 18 -26 26 -43 58 -38 70 42
112 22 153 -41 90 -18 -18 -27 -16 -37 10 -12 32 -15 32 -40 -1 -24 -31 -26
-24 -15 59 8 60 5 95 -8 95 -14 0 -14 16 1 48 26 54 73 -41 74 -148 0 -46 4
-44 51 26 51 75 51 78 20 169 -37 108 -41 212 -5 120 41 -103 94 -38 94 116 0
38 16 58 56 67 4 1 0 -50 -7 -113z m1521 -404 c110 -16 102 -17 -85 -14 -113
2 -205 8 -205 15 0 37 22 37 290 -1z m1217 16 c-29 -15 -90 -15 -190 -2 l-147
20 190 1 c145 1 180 -4 147 -19z m210 -317 c-1 -104 -6 -172 -11 -150 -6 22
-17 49 -25 60 -8 11 -10 91 -5 177 12 220 44 153 41 -87z m-3323 -86 c-12
-138 -25 -256 -45 -380 -5 -37 -1 -51 13 -43 15 10 16 2 3 -24 -10 -20 -18
-93 -17 -160 1 -68 -2 -120 -7 -115 -5 5 -20 -16 -33 -47 l-25 -55 -1 50 c-4
91 -43 200 -73 200 -37 0 -37 35 -1 71 15 15 62 167 104 338 86 349 99 374 82
165z m3286 -287 c0 -53 -99 -287 -121 -287 -9 0 -8 29 2 65 23 78 23 343 1
286 -29 -74 -41 43 -18 174 l21 122 58 -158 c31 -86 57 -177 57 -202z m-180
41 c6 -86 2 -108 -20 -108 -11 0 -19 54 -19 125 2 126 30 113 39 -17z m-3069
-181 c-7 -19 -1 -41 13 -49 31 -19 0 -120 -42 -134 -26 -9 -17 155 11 201 18
29 31 15 18 -18z m2979 -217 c0 -11 -38 -23 -85 -26 -67 -5 -85 0 -85 26 0 26
18 31 85 26 47 -3 85 -15 85 -26z m-795 -64 c-30 -5 -84 -5 -120 0 -36 4 -11
8 55 8 66 0 95 -4 65 -8z m-2367 -271 c6 -67 -78 -252 -103 -227 -3 4 5 113
19 244 l24 238 27 -90 c15 -50 30 -124 33 -165z m150 40 c-18 -55 -30 -69 -43
-51 -13 18 -15 12 -9 -19 6 -25 2 -45 -8 -45 -10 0 -18 25 -18 55 0 30 -5 78
-11 105 -10 48 -9 49 10 5 11 -25 25 -45 32 -45 6 0 6 9 -1 20 -7 11 -4 20 7
20 10 0 26 34 35 75 16 74 16 75 24 16 4 -33 -4 -94 -18 -136z m102 -55 c0
-67 -9 -120 -20 -120 -22 0 -27 123 -7 195 19 73 27 52 27 -75z m2584 45 c-80
-4 -206 -4 -280 0 -74 4 -8 7 146 7 154 0 214 -3 134 -7z m-1362 -294 c10 6
18 -12 18 -41 0 -33 -8 -47 -22 -39 -15 9 -18 0 -9 -27 7 -22 3 -46 -8 -53
-14 -9 -20 24 -19 93 0 58 6 95 11 81 6 -14 19 -20 29 -14z m-1514 -314 c-11
-114 -9 -140 12 -127 35 22 8 -87 -33 -133 -25 -28 -31 -75 -25 -227 2 -58
-26 -213 -36 -202 -5 4 -26 74 -47 155 l-38 147 83 265 c95 305 104 317 84
122z m1302 -297 l27 70 1 -66 c2 -47 9 -62 27 -51 13 8 4 -10 -20 -42 -53 -66
-57 -91 -15 -91 17 0 30 13 30 29 0 28 74 64 93 45 6 -6 0 -30 -12 -53 -13
-23 -17 -51 -11 -61 20 -33 -152 -23 -255 14 -131 47 -116 81 27 67 45 -4 57
53 62 309 l5 220 7 -230 c7 -217 9 -226 34 -160z m-726 244 c42 -17 -74 -185
-122 -178 -16 2 -35 -20 -43 -48 -14 -51 -258 -366 -272 -351 -21 21 41 229
86 288 216 284 264 323 351 289z m621 -167 c12 -8 14 -34 4 -70 -9 -31 -16
-63 -17 -70 -10 -78 -26 -4 -27 118 0 85 4 128 9 95 5 -33 19 -66 31 -73z
m-1116 -4 c-7 -29 -23 -59 -35 -66 -13 -9 -16 -1 -7 21 7 20 13 59 13 88 0 36
6 46 21 31 12 -12 15 -45 8 -74z m3603 -96 c26 -42 -27 -63 -75 -29 -25 17
-83 32 -128 32 -60 0 -82 8 -82 30 0 36 36 39 71 5 21 -20 32 -16 56 20 l31
44 57 -40 c31 -23 63 -50 70 -62z m-3633 -110 c0 -23 -12 -48 -29 -54 -33 -13
-40 39 -16 126 15 56 42 13 45 -72z m292 -252 c-19 -84 -25 -131 -28 -202 -3
-52 -8 -56 -78 -50 l-74 7 -61 -200 c-87 -284 -78 -265 -117 -233 -43 36 -42
53 9 121 l42 57 -41 93 c-42 95 -38 119 9 57 38 -49 59 -12 88 154 12 72 26
150 31 173 6 31 32 48 94 63 140 33 142 33 126 -40z m1878 1 c31 -26 -142 -18
-202 9 l-55 25 69 11 c65 10 146 -9 188 -45z m-339 -4 l60 -26 -82 -14 c-77
-14 -228 24 -228 57 0 22 191 9 250 -17z m-1891 -114 c0 -7 -21 -13 -49 -13
-29 0 -50 12 -50 27 0 16 12 22 31 15 17 -7 29 -4 27 6 -7 42 6 53 22 17 9
-22 18 -46 19 -52z m3619 -120 c23 -99 42 -193 42 -207 0 -36 -209 -256 -226
-238 -22 22 -16 51 8 36 13 -8 20 4 18 34 -7 83 1 111 20 67 16 -37 17 -36 19
9 1 53 67 481 73 481 3 0 23 -82 46 -182z m-3691 -113 c-6 -19 -15 -48 -20
-64 -8 -26 -11 -26 -28 0 -12 20 -16 3 -10 -51 4 -46 -5 -102 -20 -130 -27
-48 -28 -47 -17 30 6 44 11 94 11 110 0 86 22 140 58 140 27 0 35 -10 26 -35z
m3517 -159 c-40 -83 -42 -79 -29 52 10 100 12 104 36 61 20 -39 19 -58 -7
-113z m-1295 24 c245 -47 210 -57 -159 -42 -302 11 -662 57 -690 87 -21 22
696 -16 849 -45z"/>
<path d="M1152 3955 c88 -153 737 -897 758 -869 21 30 26 30 56 0 39 -40 28
-70 133 340 96 374 92 334 32 334 -36 0 -47 8 -38 30 6 17 5 30 -3 30 -23 0
-857 141 -908 154 -38 9 -44 6 -30 -19z"/>
</g>
</svg>
